<?xml version="1.0" standalone="no"?>
<!DOCTYPE svg PUBLIC "-//W3C//DTD SVG 20010904//EN"
 "http://www.w3.org/TR/2001/REC-SVG-20010904/DTD/svg10.dtd">
<svg version="1.0" xmlns="http://www.w3.org/2000/svg"
 width="128.000000pt" height="128.000000pt" viewBox="0 0 128.000000 128.000000"
 preserveAspectRatio="xMidYMid meet">
<metadata>
Created by potrace 1.14, written by Peter Selinger 2001-2017
</metadata>
<g transform="translate(0.000000,128.000000) scale(0.100000,-0.100000)"
fill="#000000" stroke="none">
<path d="M32 1272 c-17 -5 -5 -22 17 -22 9 0 27 -9 39 -20 25 -23 41 -25 66
-7 15 11 10 15 -46 33 -35 11 -69 19 -76 16z"/>
<path d="M356 1255 c-16 -12 -17 -17 -6 -30 11 -14 14 -13 26 2 15 20 18 43 7
43 -5 0 -17 -7 -27 -15z"/>
<path d="M471 1242 c-13 -25 2 -38 19 -16 9 10 10 18 3 25 -8 8 -14 5 -22 -9z"/>
<path d="M555 1190 c-11 -5 -34 -6 -51 -3 -34 5 -56 -13 -33 -28 11 -7 6 -16
-22 -41 -40 -37 -69 -79 -69 -103 0 -8 -8 -15 -17 -15 -13 0 -14 -3 -6 -8 13
-8 11 -137 -2 -177 -7 -20 -6 -20 9 -1 16 19 16 19 16 -5 0 -14 -5 -30 -11
-36 -7 -7 -8 -17 -1 -29 5 -11 9 -50 9 -87 -1 -66 -2 -68 -24 -64 -15 3 -23
-1 -23 -9 0 -9 9 -12 28 -8 25 5 29 1 46 -43 10 -26 29 -69 42 -95 13 -27 19
-50 13 -53 -5 -4 -9 1 -9 9 0 9 -5 16 -11 16 -15 0 -37 25 -49 54 -27 72 -34
-9 -8 -96 20 -68 209 -255 244 -241 13 5 13 8 2 15 -9 7 -4 8 16 5 37 -6 87 8
116 33 13 11 29 20 35 20 7 0 18 7 25 15 7 9 26 25 41 36 l28 20 27 -53 c15
-29 29 -48 31 -41 4 11 -20 61 -74 151 -14 24 -25 56 -25 70 0 15 -7 36 -14
47 -8 11 -14 26 -14 34 0 28 29 -12 55 -75 17 -41 25 -51 25 -34 0 14 -14 52
-29 84 -27 55 -28 62 -15 87 16 32 19 63 4 54 -6 -3 -17 0 -25 8 -8 9 -22 14
-32 13 -10 -2 -33 16 -55 42 -33 38 -38 41 -32 18 l6 -25 -60 3 c-68 5 -86 12
-78 32 7 18 3 18 -41 -7 -61 -33 -69 -44 -55 -75 8 -16 18 -24 27 -21 7 3 32
-1 55 -10 36 -14 43 -15 51 -2 6 11 9 11 9 1 0 -7 5 -10 10 -7 6 3 10 1 10 -6
0 -8 12 -10 41 -5 26 4 46 2 55 -5 11 -9 18 -8 29 1 8 7 15 8 15 2 0 -13 -25
-33 -33 -26 -3 3 -25 -12 -48 -35 -42 -40 -54 -45 -94 -41 -22 2 -94 77 -95
99 0 11 -5 10 -25 -3 -32 -21 -35 -20 -34 7 1 19 2 19 6 3 4 -15 7 -16 13 -6
13 21 -27 72 -51 65 -50 -16 -51 139 -2 233 17 32 33 75 37 97 10 53 15 60 31
38 8 -10 28 -19 47 -20 80 -5 135 -18 160 -36 20 -15 35 -18 61 -13 21 4 47 1
69 -9 l36 -14 7 -118 c8 -139 10 -152 19 -98 4 22 14 55 23 72 28 57 3 347
-28 328 -4 -3 -15 7 -23 22 -16 32 -47 61 -93 86 -34 18 -180 23 -218 7z m230
-807 c-14 -13 -34 -23 -43 -23 -16 1 -16 2 1 14 9 7 17 16 17 20 0 4 8 18 18
31 l17 23 8 -22 c6 -16 2 -26 -18 -43z"/>
<path d="M823 1193 c-7 -3 -13 -9 -13 -15 0 -10 49 -3 62 10 8 8 -30 11 -49 5z"/>
<path d="M10 1120 c20 -13 33 -13 25 0 -3 6 -14 10 -23 10 -15 0 -15 -2 -2
-10z"/>
<path d="M162 1118 c-18 -18 -15 -25 13 -30 30 -6 42 7 25 27 -15 18 -22 19
-38 3z"/>
<path d="M0 1060 c1 -42 2 -44 14 -22 11 20 14 21 25 8 7 -8 24 -15 39 -15 15
0 36 -2 47 -5 11 -2 25 -5 31 -5 7 -1 14 -10 17 -21 3 -11 13 -20 22 -20 11 0
15 5 12 14 -3 8 1 20 9 27 21 18 11 22 -64 27 -38 2 -74 10 -83 18 -8 8 -22
14 -30 14 -8 0 -20 5 -27 12 -9 9 -12 2 -12 -32z"/>
<path d="M312 1035 c-11 -24 0 -36 13 -14 4 6 13 8 20 5 19 -7 27 5 14 21 -17
20 -35 16 -47 -12z"/>
<path d="M227 920 c-3 -11 -1 -20 4 -20 5 0 9 2 9 4 0 2 3 11 6 20 3 9 2 16
-4 16 -5 0 -12 -9 -15 -20z"/>
<path d="M510 853 c-31 -11 -42 -26 -28 -34 10 -7 10 -9 -2 -9 -18 0 34 -46
69 -61 32 -13 85 5 105 36 14 21 14 25 1 39 -27 27 -107 43 -145 29z"/>
<path d="M693 818 c-12 -16 4 -101 17 -93 5 3 20 0 34 -6 19 -9 36 -9 71 1 41
12 46 16 43 39 -5 47 -138 94 -165 59z"/>
<path d="M113 784 c-16 -15 -20 -26 -16 -51 4 -28 9 -33 33 -33 38 0 58 25 31
39 -16 9 -22 8 -30 -6 -9 -16 -10 -16 -11 -1 0 9 5 18 11 20 6 2 9 14 7 27 -3
23 -3 23 -25 5z"/>
<path d="M300 785 c-11 -13 -8 -15 14 -15 16 0 26 5 26 15 0 8 -6 15 -14 15
-7 0 -19 -7 -26 -15z"/>
<path d="M29 697 c-33 -17 -40 -82 -10 -90 12 -3 21 -12 21 -21 0 -18 28 -21
50 -5 10 7 11 12 4 15 -7 3 -10 21 -7 48 6 53 -16 73 -58 53z m43 -69 c-6 -6
-14 -9 -17 -6 -3 3 -3 13 1 22 5 12 10 14 17 7 8 -8 8 -14 -1 -23z"/>
<path d="M181 594 c14 -17 -13 -35 -53 -36 -26 -1 -70 -21 -115 -52 -1 -1 -4
-13 -8 -29 -5 -18 -3 -27 5 -27 6 0 10 6 7 13 -6 18 120 38 151 23 19 -8 26
-7 34 7 5 10 13 15 19 12 5 -4 9 -1 9 6 0 8 -13 10 -45 6 -27 -4 -45 -3 -45 3
0 6 9 10 20 10 10 0 24 9 30 20 9 16 21 20 61 20 41 0 50 3 47 16 -2 13 -16
17 -65 18 -46 2 -60 -1 -52 -10z"/>
<path d="M370 540 c0 -5 5 -10 10 -10 6 0 10 5 10 10 0 6 -4 10 -10 10 -5 0
-10 -4 -10 -10z"/>
<path d="M607 523 c-4 -3 -7 -12 -7 -20 0 -16 46 -18 56 -2 11 19 -33 39 -49
22z"/>
<path d="M22 388 c-1 -22 3 -28 16 -26 9 3 16 10 15 16 -2 7 2 12 8 12 20 0 3
23 -18 25 -16 1 -20 -5 -21 -27z"/>
<path d="M367 304 c-4 -4 -7 -12 -7 -18 0 -6 4 -6 12 2 9 9 15 7 25 -6 13 -16
14 -16 11 3 -3 20 -28 32 -41 19z"/>
<path d="M410 213 c0 -10 82 -55 88 -49 4 4 -72 56 -83 56 -3 0 -5 -3 -5 -7z"/>
<path d="M971 133 c-13 -3 -38 -13 -55 -22 -22 -13 -38 -16 -54 -10 -13 5 -64
10 -115 13 -51 2 -76 2 -57 -1 19 -2 57 -11 83 -19 26 -9 55 -13 64 -10 9 4
20 1 24 -6 6 -9 13 -9 34 0 14 7 34 12 45 12 10 0 32 11 47 25 28 25 27 26
-16 18z"/>
</g>
</svg>
